HIERARCHY
ROOT Hips
{
	OFFSET	0.000000	0.000000	0.000000
	CHANNELS 6 Xposition Yposition Zposition Zrotation Xrotation Yrotation
	JOINT LeftHip
	{
		OFFSET	4.740440	-3.195970	-0.322709
		CHANNELS 3 Zrotation Xrotation Yrotation
		JOINT LeftKnee
		{
			OFFSET	-1.605680	-15.592300	1.005510
			CHANNELS 3 Zrotation Xrotation Yrotation
			JOINT LeftAnkle
			{
				OFFSET	-0.632401	-16.421000	-1.413730
				CHANNELS 3 Zrotation Xrotation Yrotation
				End Site
				{
					OFFSET	0.008423	-2.933000	-1.684880
				}
			}
		}
	}
	JOINT RightHip
	{
		OFFSET	-4.740440	-3.195970	-0.322709
		CHANNELS 3 Zrotation Xrotation Yrotation
		JOINT RightKnee
		{
			OFFSET	1.605680	-15.592300	1.005510
			CHANNELS 3 Zrotation Xrotation Yrotation
			JOINT RightAnkle
			{
				OFFSET	0.632401	-16.421000	-1.413730
				CHANNELS 3 Zrotation Xrotation Yrotation
				End Site
				{
					OFFSET	-0.008423	-2.933000	-1.684880
				}
			}
		}
	}
	JOINT Chest
	{
		OFFSET	0.000000	3.468200	0.078401
		CHANNELS 3 Zrotation Xrotation Yrotation
		JOINT LeftCollar
		{
			OFFSET	3.857650	15.070700	-0.011583
			CHANNELS 3 Zrotation Xrotation Yrotation
			JOINT LeftShoulder
			{
				OFFSET	3.979720	-1.940530	-0.165223
				CHANNELS 3 Zrotation Xrotation Yrotation
				JOINT LeftElbow
				{
					OFFSET	0.615844	-10.986600	-0.673886
					CHANNELS 3 Zrotation Xrotation Yrotation
					JOINT LeftWrist
					{
						OFFSET	0.826843	-10.854500	1.034220
						CHANNELS 3 Zrotation Xrotation Yrotation
						End Site
						{
							OFFSET	-1.679080	-8.456540	0.936217
						}
					}
				}
			}
		}
		JOINT RightCollar
		{
			OFFSET	-3.857650	15.070700	-0.011583
			CHANNELS 3 Zrotation Xrotation Yrotation
			JOINT RightShoulder
			{
				OFFSET	-3.979720	-1.940530	-0.165223
				CHANNELS 3 Zrotation Xrotation Yrotation
				JOINT RightElbow
				{
					OFFSET	-0.615845	-10.986600	-0.673886
					CHANNELS 3 Zrotation Xrotation Yrotation
					JOINT RightWrist
					{
						OFFSET	-0.826843	-10.854500	1.034220
						CHANNELS 3 Zrotation Xrotation Yrotation
						End Site
						{
							OFFSET	1.679080	-8.456540	0.936217
						}
					}
				}
			}
		}
		JOINT Neck
		{
			OFFSET	0.000000	15.101400	0.055730
			CHANNELS 3 Zrotation Xrotation Yrotation
			JOINT Head
			{
				OFFSET	0.000000	4.185120	1.488260
				CHANNELS 3 Zrotation Xrotation Yrotation
				End Site
				{
					OFFSET	0.000000	7.773420	-0.106016
				}
			}
		}
	}
}
MOTION
Frames:     10
Frame Time: 0.016667
-6.541119	36.919346	69.493347	4.243933	-6.163960	22.039555	1.688599	-7.472738	8.563041	-1.225494	22.811903	4.709325	-1.011794	-7.764810	-1.681064	-11.456417	9.596703	-2.789044	5.687314	24.908400	-9.423091	-20.484386	2.962966	-14.274877	-3.766559	5.622101	4.376261	0.096747	2.825633	2.700820	7.906377	-3.820735	4.013400	-7.451928	-20.248425	-6.689093	20.867336	4.025152	-23.010162	-0.267612	0.948120	8.407948	-13.945595	0.994304	-12.998256	-8.277458	-29.329031	4.559216	-16.689199	-3.942809	19.196527	1.014919	15.532163	-3.823107	1.210020	13.770222	4.276732	
-6.026793	36.984734	69.865829	4.398139	-6.282813	22.160540	1.047033	-5.924318	8.264213	-1.594348	22.040022	4.784892	-0.538193	-8.317457	-1.485736	-12.166000	9.086265	-3.010671	6.441673	26.291674	-10.474310	-19.528925	3.768259	-13.353458	-3.478122	5.134602	4.199062	-0.005831	3.200386	2.749772	6.520536	-3.688664	3.932878	-4.320143	-16.841661	-2.103054	23.716619	4.246209	-21.669680	-0.190030	1.296507	8.115856	-12.488172	1.384640	-12.561453	-6.831703	-25.076143	4.554945	-16.882847	-3.491712	20.315928	0.911094	15.457461	-3.867970	0.811433	13.029343	4.689269	
-5.870676	37.010525	69.989960	4.544993	-6.530653	22.403940	0.868785	-5.181973	8.090857	-1.733451	21.770300	4.691162	-0.418741	-8.447968	-1.440053	-12.367057	9.187154	-3.322799	7.241589	27.148577	-9.465065	-19.900965	3.626110	-13.983362	-3.401877	5.238180	3.964884	0.029281	3.303709	2.743941	6.141414	-3.635076	3.840768	-3.532069	-15.694773	-0.609528	24.534273	4.462358	-21.116301	-0.134767	1.394866	7.997634	-11.772700	1.509999	-12.441290	-6.497332	-23.570724	4.724737	-17.054758	-3.409591	20.677618	0.995139	15.314117	-3.918822	0.655109	12.902122	4.787805	
-5.466195	37.086525	70.360626	4.689824	-6.585627	22.677353	0.589937	-3.703586	8.365189	-2.194124	20.938881	4.301042	-0.128557	-8.716857	-1.591568	-12.492973	8.486019	-4.129425	7.627756	28.334486	-7.241385	-20.213358	3.254926	-13.153027	-3.203581	4.796647	3.638579	0.220192	3.607250	2.718040	5.231294	-3.373232	3.449592	-1.668005	-12.386240	3.160620	26.049753	7.228330	-18.831942	0.129721	1.770625	7.622437	-9.892856	1.957323	-12.059114	-5.329690	-18.976944	5.409517	-17.704172	-3.258195	21.672832	1.397418	15.034697	-4.139138	0.351155	12.437298	4.915936	
-5.354190	37.104095	70.496307	4.839083	-6.555815	22.979256	0.437025	-3.234015	8.352065	-2.357066	20.663589	4.173166	-0.066297	-8.774197	-1.746577	-12.557199	8.229499	-4.475906	8.300209	28.883118	-5.699903	-20.708986	3.282228	-14.038072	-3.235967	4.655581	3.331273	0.313198	3.718513	2.695361	4.984112	-3.299734	3.323119	-1.181587	-11.313525	4.099536	25.647474	9.238648	-18.614653	0.224159	1.932965	7.474242	-8.526014	2.262909	-11.808373	-5.723176	-17.745228	5.529110	-17.902813	-3.175970	21.961155	1.533399	14.980632	-4.216159	0.336496	12.272560	4.892113	
-5.045740	37.165440	70.844856	5.044600	-6.454693	23.348921	0.223938	-1.946085	8.841866	-2.793773	19.792927	3.768426	0.075682	-8.891085	-2.207876	-12.685106	7.116152	-4.375453	9.308121	30.061670	-5.721486	-21.107643	2.266195	-12.790727	-3.219769	4.123434	2.942800	0.722772	4.005578	2.663355	4.355488	-2.969957	2.892337	-0.002830	-8.358949	6.102612	23.818653	8.885862	-19.388329	0.819458	2.602103	6.845240	-7.759027	2.587707	-10.965332	-4.153024	-13.123920	6.350169	-18.132759	-2.660772	22.658371	1.981266	14.840080	-4.445876	0.518899	11.885831	4.635139	
-4.940054	37.181599	70.960739	5.146648	-6.400831	23.553665	0.103139	-1.538530	8.866187	-2.957480	19.503204	3.677050	0.131180	-8.914546	-2.326297	-12.769862	6.710798	-4.404854	10.190033	30.531172	-6.218787	-21.571539	1.852580	-12.540912	-3.202467	3.800451	2.853387	0.853075	4.255731	2.541765	4.122628	-2.833783	2.782659	0.312963	-7.531255	6.498602	22.649302	10.446484	-20.890673	0.723613	2.930878	6.727909	-6.974295	2.849920	-10.809953	-3.947988	-11.815079	6.561891	-15.771585	0.883590	24.718649	2.390343	14.769953	-4.797625	0.331222	11.908129	4.592029	
-4.583539	37.211246	71.285065	5.632779	-6.362761	24.116095	-0.557072	-0.098146	8.900516	-3.264408	18.572683	3.436049	0.272980	-9.008064	-2.690019	-13.140259	5.630565	-4.894169	10.897187	31.869310	-7.514598	-21.765837	0.471252	-12.300302	-3.542784	3.696186	2.519326	1.456533	4.278868	2.373621	3.448064	-2.403389	2.614727	0.968948	-5.442353	7.134353	20.820986	10.294874	-22.698736	1.194841	3.400466	6.018940	-5.088933	3.613959	-9.955328	-3.524345	-8.400228	7.314947	-16.817636	0.036247	24.400578	2.839803	14.660349	-5.228921	0.806099	11.353102	4.227777	
-4.485222	37.214474	71.392807	5.832836	-6.378955	24.314734	-0.749499	0.386189	8.844059	-3.407661	18.313444	3.427568	0.301903	-9.062002	-2.809148	-13.307047	5.287406	-5.204385	11.525151	32.294884	-8.965190	-22.393909	-0.387156	-12.288771	-3.673957	3.678316	2.437443	1.655142	4.319009	2.282346	3.224055	-2.252342	2.580200	1.126880	-4.906201	7.253774	19.596943	11.347307	-25.063702	1.694532	3.696659	5.398420	-4.795519	3.795324	-9.436410	-3.441708	-7.443655	7.598571	-15.793537	1.726968	25.346994	3.071293	14.596350	-5.431828	0.892971	11.234333	4.099912	
-4.206828	37.211338	71.699577	6.434796	-6.451524	24.890951	-1.424919	1.712396	8.352347	-3.663395	17.670668	3.641945	0.352161	-9.253018	-3.005260	-13.847330	4.187269	-6.238207	11.902478	33.746201	-10.032891	-22.796576	-1.028946	-12.275865	-4.098389	3.599844	2.059931	2.240705	4.460483	2.120166	2.603722	-1.743203	2.720483	1.578736	-3.791420	7.361184	17.860741	11.427025	-27.256613	1.966290	4.326946	4.860262	-2.548346	4.730962	-9.181081	-3.197792	-5.109343	8.497320	-16.950508	1.197531	24.967999	4.023424	14.399508	-5.906761	0.916112	10.978864	3.665641	
